<?xml version="1.0" encoding="UTF-8" standalone="no"?>
<svg
   width="64"
   height="64"
   version="1.1"
   id="svg455"
   sodipodi:docname="mxfb-settings2.svg"
   inkscape:version="1.2.2 (732a01da63, 2022-12-09)"
   inkscape:export-filename="png\uefi-manager-e64.png"
   inkscape:export-xdpi="96"
   inkscape:export-ydpi="96"
   xmlns:inkscape="http://www.inkscape.org/namespaces/inkscape"
   xmlns:sodipodi="http://sodipodi.sourceforge.net/DTD/sodipodi-0.dtd"
   xmlns="http://www.w3.org/2000/svg"
   xmlns:svg="http://www.w3.org/2000/svg">
  <defs
     id="defs459">
    <rect
       x="11.87742"
       y="69.861673"
       width="43.48819"
       height="24.690069"
       id="rect632" />
  </defs>
  <sodipodi:namedview
     id="namedview457"
     pagecolor="#ffffff"
     bordercolor="#000000"
     borderopacity="0.25"
     inkscape:showpageshadow="2"
     inkscape:pageopacity="0.0"
     inkscape:pagecheckerboard="0"
     inkscape:deskcolor="#d1d1d1"
     showgrid="false"
     inkscape:window-width="1920"
     inkscape:window-height="1027"
     inkscape:window-x="-8"
     inkscape:window-y="-8"
     inkscape:window-maximized="1"
     inkscape:current-layer="svg455">
    <inkscape:grid
       type="xygrid"
       id="grid1967" />
  </sodipodi:namedview>
  <rect
     style="opacity:0.2"
     width="56"
     height="56"
     x="4"
     y="5.0000005"
     rx="2.8"
     ry="2.8"
     id="rect4339" />
  <rect
     style="display:inline;fill:#c33131;fill-opacity:1"
     width="56"
     height="56"
     x="4"
     y="4.0000005"
     rx="2.8"
     ry="2.8"
     id="rect4341" />
  <path
     style="display:inline;opacity:0.1;fill:#ffffff"
     d="m 6.8007818,4 c -1.5512,0 -2.800781,1.249581 -2.800781,2.800781 v 1 C 4.0000008,6.249581 5.2495818,5 6.8007818,5 H 57.19922 c 1.5512,0 2.800781,1.249581 2.800781,2.800781 v -1 C 60.000001,5.249581 58.75042,4 57.19922,4 Z"
     id="path4343" />
  <path
     d="m 36.375053,27.00105 -0.30869,3.68749 a 10.999821,10.999821 0 0 0 -3.214737,1.85933 l -3.351451,-1.57808 -3.499895,6.062169 3.042843,2.113236 a 10.999821,10.999821 0 0 0 -0.167994,1.8554 10.999821,10.999821 0 0 0 0.159946,1.86324 L 26,44.969232 29.499895,51.0314 32.843556,49.457217 a 10.999821,10.999821 0 0 0 3.222527,1.847594 L 36.374773,55 h 6.99979 l 0.308691,-3.687491 a 10.999821,10.999821 0 0 0 3.21479,-1.859361 l 3.351428,1.578105 3.499896,-6.062168 -3.042878,-2.113237 a 10.999821,10.999821 0 0 0 0.167993,-1.8554 10.999821,10.999821 0 0 0 -0.159944,-1.86324 l 3.035074,-2.105396 -3.499895,-6.062168 -3.34366,1.574182 A 10.999821,10.999821 0 0 0 43.68266,30.69589 L 43.374668,27 h -6.99979 z m 3.499894,9.999901 a 4.0000301,4.0000301 0 0 1 4.000381,4.000379 4.0000301,4.0000301 0 0 1 -4.000379,4.00038 4.0000301,4.0000301 0 0 1 -4.000379,-4.000381 4.0000301,4.0000301 0 0 1 4.000377,-4.000378 z"
     style="display:inline;opacity:0.4;fill:#252a35;fill-opacity:1;stroke:none;stroke-width:1;stroke-opacity:1"
     id="path1547" />
  <path
     d="m 36.375053,26.001412 -0.30869,3.68749 a 10.999821,10.999821 0 0 0 -3.214737,1.85933 l -3.351451,-1.57808 -3.499895,6.062169 3.042843,2.113236 a 10.999821,10.999821 0 0 0 -0.167994,1.8554 10.999821,10.999821 0 0 0 0.159946,1.86324 L 26,43.969594 l 3.499895,6.062168 3.343661,-1.574183 a 10.999821,10.999821 0 0 0 3.222527,1.847594 l 0.30869,3.695189 h 6.99979 l 0.308691,-3.687491 a 10.999821,10.999821 0 0 0 3.21479,-1.859361 l 3.351428,1.578105 3.499896,-6.062168 -3.042878,-2.113237 a 10.999821,10.999821 0 0 0 0.167993,-1.8554 10.999821,10.999821 0 0 0 -0.159944,-1.86324 l 3.035074,-2.105396 -3.499895,-6.062168 -3.34366,1.574182 A 10.999821,10.999821 0 0 0 43.68266,29.696252 l -0.307992,-3.69589 h -6.99979 z m 3.499894,9.999901 a 4.0000301,4.0000301 0 0 1 4.000381,4.000379 4.0000301,4.0000301 0 0 1 -4.000379,4.00038 4.0000301,4.0000301 0 0 1 -4.000379,-4.000381 4.0000301,4.0000301 0 0 1 4.000377,-4.000378 z"
     style="display:inline;fill:#ffaa56;fill-opacity:1;stroke:none;stroke-width:1;stroke-opacity:1"
     id="path441" />
  <path
     inkscape:connector-curvature="0"
     d="m 43.557023,11.015754 c -13.204796,0.818889 -24.70297,4.856203 -30.595077,10.750299 -3.5848312,3.589777 -4.7766132,7.674702 -3.4132122,11.702491 0.133415,0.390402 0.162063,0.637971 0.104725,0.780802 -0.152567,0.418966 -0.371841,1.904391 -0.371841,2.561408 0,1.809174 0.715062,4.246796 1.7256732,5.856008 l 0.209749,0.333268 0.171617,-0.876021 c 0.381366,-1.837739 1.420596,-4.26584 2.612365,-6.065491 5.501201,-8.322194 18.143459,-14.816174 33.083465,-17.006226 2.698153,-0.390399 4.366629,-0.53323 8.437721,-0.72367 l 1.477794,-0.07618 -1.334781,-0.161874 c -7.493846,-0.952195 -16.904033,-0.409443 -24.169052,1.399728 -5.558411,1.380686 -10.811732,3.48504 -13.948447,5.579872 -0.295564,0.199961 -0.543443,0.342791 -0.543443,0.323748 0,-0.02857 0.486233,-0.485622 1.077347,-1.00933 3.136729,-2.828022 7.436621,-5.465608 11.993961,-7.379521 0.705522,-0.295182 1.363358,-0.571318 1.468253,-0.618928 0.400432,-0.190439 1.964026,-0.752234 3.384623,-1.218811 5.320043,-1.752042 10.697311,-2.837545 16.398707,-3.30412 0.962954,-0.07618 2.107066,-0.142823 2.536102,-0.142823 0.419497,0 1.239426,-0.02857 1.811474,-0.06665 1.220374,-0.08569 1.210835,-0.08569 -1.868684,-0.409444 -1.601726,-0.171397 -2.650495,-0.209485 -5.815831,-0.238049 -2.126117,-0.0095 -4.118749,-0.0095 -4.433378,0.0095 z"
     id="path1018"
     style="display:inline;fill:#252a35;fill-opacity:1;stroke:none;stroke-width:0.006746;opacity:0.4" />
  <path
     inkscape:connector-curvature="0"
     d="m 43.557023,10.015754 c -13.204796,0.818889 -24.70297,4.856203 -30.595077,10.750299 -3.5848312,3.589777 -4.7766132,7.674702 -3.4132122,11.702491 0.133415,0.390402 0.162063,0.637971 0.104725,0.780802 -0.152567,0.418966 -0.371841,1.904391 -0.371841,2.561408 0,1.809174 0.715062,4.246796 1.7256732,5.856008 l 0.209749,0.333268 0.171617,-0.876021 c 0.381366,-1.837739 1.420596,-4.26584 2.612365,-6.065491 5.501201,-8.322194 18.143459,-14.816174 33.083465,-17.006226 2.698153,-0.390399 4.366629,-0.53323 8.437721,-0.72367 l 1.477794,-0.07618 -1.334781,-0.161874 c -7.493846,-0.952195 -16.904033,-0.409443 -24.169052,1.399728 -5.558411,1.380686 -10.811732,3.48504 -13.948447,5.579872 -0.295564,0.199961 -0.543443,0.342791 -0.543443,0.323748 0,-0.02857 0.486233,-0.485622 1.077347,-1.00933 3.136729,-2.828022 7.436621,-5.465608 11.993961,-7.379521 0.705522,-0.295182 1.363358,-0.571318 1.468253,-0.618928 0.400432,-0.190439 1.964026,-0.752234 3.384623,-1.218811 5.320043,-1.752042 10.697311,-2.837545 16.398707,-3.30412 0.962954,-0.07618 2.107066,-0.142823 2.536102,-0.142823 0.419497,0 1.239426,-0.02857 1.811474,-0.06665 1.220374,-0.08569 1.210835,-0.08569 -1.868684,-0.409444 -1.601726,-0.171397 -2.650495,-0.209485 -5.815831,-0.238049 -2.126117,-0.0095 -4.118749,-0.0095 -4.433378,0.0095 z"
     id="path6035"
     style="display:inline;fill:#ffaa56;fill-opacity:1;stroke:none;stroke-width:0.006746" />
</svg>
