<?xml version="1.0" encoding="UTF-8" standalone="no"?>
<svg
   width="64"
   height="64"
   version="1.1"
   id="svg22"
   sodipodi:docname="mxfb-tint2-manager2.svg"
   inkscape:version="1.2.2 (732a01da63, 2022-12-09)"
   inkscape:export-filename="mxfb-tint2-manager.png"
   inkscape:export-xdpi="96"
   inkscape:export-ydpi="96"
   xmlns:inkscape="http://www.inkscape.org/namespaces/inkscape"
   xmlns:sodipodi="http://sodipodi.sourceforge.net/DTD/sodipodi-0.dtd"
   xmlns="http://www.w3.org/2000/svg"
   xmlns:svg="http://www.w3.org/2000/svg">
  <defs
     id="defs26" />
  <sodipodi:namedview
     id="namedview24"
     pagecolor="#ffffff"
     bordercolor="#000000"
     borderopacity="0.25"
     inkscape:showpageshadow="2"
     inkscape:pageopacity="0.0"
     inkscape:pagecheckerboard="0"
     inkscape:deskcolor="#d1d1d1"
     showgrid="true"
     inkscape:window-width="1920"
     inkscape:window-height="1027"
     inkscape:window-x="1912"
     inkscape:window-y="-8"
     inkscape:window-maximized="1"
     inkscape:current-layer="svg22">
    <inkscape:grid
       type="xygrid"
       id="grid1525" />
  </sodipodi:namedview>
  <path
     d="M 63.958,48.00034 A 16,16 0 0 1 48,63.152337 16,16 0 0 1 32.042,48.30434 16,16 0 0 0 32,49.15234 16,16 0 0 0 48,65.152337 16,16 0 0 0 64,49.15234 16,16 0 0 0 63.95704,48 Z"
     style="opacity:0.2"
     id="path10394" />
  <path
     style="fill:#8da3b3;fill-opacity:1"
     d="m 57.1992,7.0019434 c 1.5512,0 2.8008,1.2495821 2.8008,2.8007599 V 45.0002 l -56,0 V 9.8007034 c 0,-1.5511779 1.25,-2.80076 2.8,-2.80076 h 50.4 z"
     id="path2" />
  <path
     style="fill:#1d2324;fill-opacity:1"
     d="m 57.2,57.000028 c 1.5512,0 2.8,-1.247982 2.8,-2.79996 V 45.0002 H 4 v 9.199868 c 0,1.551178 1.2488,2.79996 2.8,2.79996 z"
     id="path4" />
  <circle
     style="opacity:0.2"
     cx="-25"
     cy="51"
     r="3"
     id="circle6"
     transform="scale(-1,1)" />
  <circle
     style="opacity:0.2"
     cx="-17"
     cy="51"
     r="3"
     id="circle8"
     transform="scale(-1,1)" />
  <circle
     style="opacity:0.2"
     cx="-9.0009995"
     cy="51"
     r="3"
     id="circle10"
     transform="scale(-1,1)" />
  <circle
     style="opacity:1;fill:#ffffff"
     cx="-25"
     cy="50"
     r="3"
     id="circle12"
     transform="scale(-1,1)" />
  <circle
     style="opacity:1;fill:#ffffff"
     cx="-17"
     cy="50"
     r="3"
     id="circle14"
     transform="scale(-1,1)" />
  <circle
     style="opacity:1;fill:#ffffff"
     cx="-9.0009995"
     cy="50"
     r="3"
     id="circle16"
     transform="scale(-1,1)" />
  <path
     style="opacity:0.1;fill:#ffffff"
     d="M 57.199219,7 C 58.750397,7 60,8.2493467 60,9.8002057 V 10.8 C 60,9.2491415 58.750397,7.9997945 57.199219,7.9997945 H 6.800781 C 5.250804,7.9997945 4,9.2491415 4,10.8 V 9.8002057 C 4,8.2493467 5.250804,7 6.800781,7 Z"
     id="path18" />
  <path
     style="opacity:0.2"
     d="m 60,54.2 v 0.999795 C 60,56.749454 58.750397,58 57.199219,58 H 6.800781 C 5.250804,58 4,56.749454 4,55.199795 V 54.2 c 0,1.54966 1.250804,2.800205 2.800781,2.800205 H 57.199219 C 58.750397,57.000205 60,55.74966 60,54.2 Z"
     id="path20" />
  <rect
     style="fill:#0f56d9;fill-opacity:1;fill-rule:evenodd;stroke:#c3d5f6;stroke-width:0;stroke-linecap:square;stroke-miterlimit:3;paint-order:markers fill stroke"
     id="rect1527"
     width="30"
     height="2"
     x="4"
     y="43" />
  <circle
     cx="48.000004"
     cy="48"
     r="16"
     style="fill:#0f56d9;fill-opacity:1"
     id="circle10396" />
  <path
     d="m 46,39.999997 -0.1764,2.1072 a 6.2858,6.2858 0 0 0 -1.83704,1.06252 l -1.91518,-0.9018 -2,3.4642 1.73882,1.2076 a 6.2858,6.2858 0 0 0 -0.096,1.06026 6.2858,6.2858 0 0 0 0.0914,1.06474 l -1.73438,1.20312 2,3.4642 1.91072,-0.89956 a 6.2858,6.2858 0 0 0 1.8415,1.0558 l 0.1764,2.1116 h 4 l 0.1764,-2.1072 a 6.2858,6.2858 0 0 0 1.83708,-1.06252 l 1.91516,0.9018 2,-3.4642 -1.73884,-1.2076 a 6.2858,6.2858 0 0 0 0.096,-1.06026 6.2858,6.2858 0 0 0 -0.0914,-1.06474 l 1.73438,-1.20312 -2,-3.4642 -1.91072,0.89956 a 6.2858,6.2858 0 0 0 -1.842,-1.056 l -0.176,-2.112 h -4 z m 2,5.7144 a 2.2858,2.2858 0 0 1 2.286,2.286 2.2858,2.2858 0 0 1 -2.286,2.286 2.2858,2.2858 0 0 1 -2.286,-2.286 2.2858,2.2858 0 0 1 2.286,-2.286 z"
     style="fill:#ffffff"
     id="path10398" />
</svg>
