<?xml version="1.0" encoding="UTF-8" standalone="no"?>
<svg
   width="64"
   height="64"
   version="1"
   id="svg12"
   xmlns="http://www.w3.org/2000/svg"
   xmlns:svg="http://www.w3.org/2000/svg">
  <defs
     id="defs16" />
  <circle
     style="opacity:0.2"
     cx="32"
     cy="33"
     r="29"
     id="circle2" />
  <circle
     style="fill:#1d2324;fill-opacity:1"
     cx="32"
     cy="32"
     r="29"
     id="circle4" />
  <path
     style="opacity:0.2"
     d="M 31.953124,10 A 3.0003,2.9895796 0 0 0 29,13.03125 v 17.9375 a 3.0003,2.9895796 0 1 0 6,0 V 13.03125 A 3.0003,2.9895796 0 0 0 31.953124,10 Z m -9.972656,5 a 3.0006206,2.998966 0 0 0 -1.601562,0.523438 C 12.687063,20.631068 9.2330084,30.202568 11.886719,39.042968 14.540429,47.88337 22.69106,53.967782 31.925782,54 c 9.23472,0.03222 17.43304,-5.994738 20.148436,-14.816406 2.7154,-8.821672 -0.67605,-18.41695 -8.33203,-23.578125 a 3.0006206,2.998966 0 1 0 -3.35547,4.972657 c 5.48671,3.69879 7.895228,10.517732 5.94922,16.839842 -1.946008,6.32211 -7.768592,10.609028 -14.38672,10.585938 -6.618126,-0.0231 -12.414604,-4.351966 -14.316406,-10.6875 -1.901799,-6.335534 0.553996,-13.132552 6.066406,-16.792968 A 3.0006206,2.998966 0 0 0 21.980468,15 Z"
     id="path6" />
  <path
     style="fill:#cacdd0;stroke:#ffffff;stroke-opacity:1;fill-opacity:1;stroke-width:0;stroke-miterlimit:4;stroke-dasharray:none"
     d="M 31.953124,9 A 3.0003,2.9895796 0 0 0 29,12.03125 v 17.9375 a 3.0003,2.9895796 0 1 0 6,0 V 12.03125 A 3.0003,2.9895796 0 0 0 31.953124,9 Z m -9.972656,5 a 3.0006206,2.998966 0 0 0 -1.601562,0.523438 C 12.687063,19.631067 9.2330084,29.202568 11.886719,38.042968 14.540429,46.88337 22.69106,52.967782 31.925782,53 c 9.23472,0.03222 17.43304,-5.994738 20.148436,-14.816406 2.7154,-8.821672 -0.67605,-18.416951 -8.33203,-23.578125 a 3.0006206,2.998966 0 1 0 -3.35547,4.972656 c 5.48671,3.698791 7.895228,10.517733 5.94922,16.839843 -1.946008,6.32211 -7.768592,10.609028 -14.38672,10.585938 -6.618126,-0.0231 -12.414604,-4.351966 -14.316406,-10.6875 -1.901799,-6.335534 0.553996,-13.132552 6.066406,-16.792968 A 3.0006206,2.998966 0 0 0 21.980468,14 Z"
     id="path8" />
  <path
     style="opacity:0.2;fill:#ffffff"
     d="M 32 3 A 29 29 0 0 0 3 32 A 29 29 0 0 0 3.0175781 32.488281 A 29 29 0 0 1 32 4 A 29 29 0 0 1 60.974609 32.494141 A 29 29 0 0 0 61 32 A 29 29 0 0 0 32 3 z"
     id="path10" />
  <circle
     style="opacity:0.2"
     cx="48"
     cy="47"
     r="16"
     id="circle20" />
  <circle
     style="fill:#0f56d9;fill-opacity:1"
     cx="48"
     cy="46"
     r="16"
     id="circle22" />
  <path
     style="fill:#ffffff"
     d="m 45.928,38 -0.176,2.107 A 6.2858,6.2858 0 0 0 43.914,41.17 L 42,40.268 l -2,3.464 1.738,1.207 A 6.2858,6.2858 0 0 0 41.643,46 6.2858,6.2858 0 0 0 41.734,47.064 L 40,48.27 l 2,3.462 1.91,-0.898 a 6.2858,6.2858 0 0 0 1.842,1.055 L 45.928,54 h 4 l 0.177,-2.105 a 6.2858,6.2858 0 0 0 1.836,-1.065 l 1.916,0.902 2,-3.462 -1.74,-1.209 A 6.2858,6.2858 0 0 0 54.215,46 6.2858,6.2858 0 0 0 54.123,44.936 l 1.734,-1.204 -2,-3.462 -1.912,0.898 a 6.2858,6.2858 0 0 0 -1.84,-1.055 L 49.93,38 h -4 z M 48,43 a 3,3 0 0 1 3,3 3,3 0 0 1 -3,3 3,3 0 0 1 -3,-3 3,3 0 0 1 3,-3 z"
     id="path24" />
</svg>
