<?xml version="1.0" encoding="UTF-8" standalone="no"?>
<svg
   xmlns:dc="http://purl.org/dc/elements/1.1/"
   xmlns:cc="http://creativecommons.org/ns#"
   xmlns:rdf="http://www.w3.org/1999/02/22-rdf-syntax-ns#"
   xmlns:svg="http://www.w3.org/2000/svg"
   xmlns="http://www.w3.org/2000/svg"
   xmlns:sodipodi="http://sodipodi.sourceforge.net/DTD/sodipodi-0.dtd"
   xmlns:inkscape="http://www.inkscape.org/namespaces/inkscape"
   width="48"
   height="48"
   version="1"
   id="svg12"
   sodipodi:docname="mxfb-settings.svg"
   inkscape:version="0.92.5 (2060ec1f9f, 2020-04-08)"
   inkscape:export-filename="/home/aks/Downloads/mxfb-settings.png"
   inkscape:export-xdpi="96"
   inkscape:export-ydpi="96">
  <metadata
     id="metadata18">
    <rdf:RDF>
      <cc:Work
         rdf:about="">
        <dc:format>image/svg+xml</dc:format>
        <dc:type
           rdf:resource="http://purl.org/dc/dcmitype/StillImage" />
        <dc:title />
      </cc:Work>
    </rdf:RDF>
  </metadata>
  <defs
     id="defs16">
    <inkscape:perspective
       id="perspective10"
       inkscape:persp3d-origin="372.04724 : 350.78739 : 1"
       inkscape:vp_z="744.09448 : 526.18109 : 1"
       inkscape:vp_y="0 : 1000 : 0"
       inkscape:vp_x="0 : 526.18109 : 1"
       sodipodi:type="inkscape:persp3d" />
    <inkscape:perspective
       sodipodi:type="inkscape:persp3d"
       inkscape:vp_x="0 : 526.18109 : 1"
       inkscape:vp_y="0 : 1000 : 0"
       inkscape:vp_z="744.09448 : 526.18109 : 1"
       inkscape:persp3d-origin="372.04724 : 350.78739 : 1"
       id="perspective2447" />
  </defs>
  <sodipodi:namedview
     pagecolor="#ffffff"
     bordercolor="#666666"
     borderopacity="1"
     objecttolerance="10"
     gridtolerance="10"
     guidetolerance="10"
     inkscape:pageopacity="0"
     inkscape:pageshadow="2"
     inkscape:window-width="1920"
     inkscape:window-height="1015"
     id="namedview14"
     showgrid="false"
     inkscape:zoom="2.4583333"
     inkscape:cx="-89.798314"
     inkscape:cy="17.706016"
     inkscape:window-x="0"
     inkscape:window-y="0"
     inkscape:window-maximized="1"
     inkscape:current-layer="layer1" />
  <g
     inkscape:groupmode="layer"
     id="layer1"
     inkscape:label="Layer 1" />
  <g
     id="g1051"
     transform="translate(320.2753,-2.5254288)">
    <rect
       id="rect1012"
       transform="matrix(0,-1,-1,0,0,0)"
       ry="12"
       rx="12"
       y="276.2753"
       x="-47.025429"
       height="40"
       width="40"
       style="opacity:0.2" />
    <rect
       id="rect1014"
       style="fill:#c33131"
       transform="matrix(0,-1,-1,0,0,0)"
       ry="12"
       rx="12"
       y="276.2753"
       x="-46.025429"
       height="40"
       width="40" />
    <path
       id="path1016"
       d="m -304.2753,6.0254308 c -6.648,0 -12,5.3520002 -12,11.9999992 v 1 c 0,-6.648 5.352,-11.9999992 12,-11.9999992 h 16 c 6.648,0 12,5.3519992 12,11.9999992 v -1 c 0,-6.648 -5.352,-11.9999992 -12,-11.9999992 z"
       style="opacity:0.1;fill:#ffffff"
       inkscape:connector-curvature="0" />
    <path
       inkscape:connector-curvature="0"
       d="m -289.27409,10.076824 c -9.34321,0.580155 -17.47888,3.440458 -21.64791,7.61623 -2.53649,2.543238 -3.37975,5.437272 -2.41506,8.290827 0.0944,0.276587 0.11467,0.451981 0.0741,0.553172 -0.10795,0.296824 -0.2631,1.349198 -0.2631,1.814673 0,1.28174 0.50595,3.008714 1.22102,4.148788 l 0.14841,0.236109 0.12143,-0.620632 c 0.26984,-1.301977 1.00516,-3.022206 1.84841,-4.297199 3.89244,-5.895999 12.83762,-10.496769 23.4086,-12.048348 1.90911,-0.276585 3.08966,-0.377776 5.97021,-0.512696 l 1.04563,-0.05397 -0.94444,-0.114682 c -5.30236,-0.674599 -11.96065,-0.290077 -17.1011,0.991661 -3.93292,0.97817 -7.64997,2.469035 -9.86939,3.953154 -0.20913,0.141666 -0.38452,0.242856 -0.38452,0.229365 0,-0.02024 0.34404,-0.344047 0.76229,-0.715077 2.21943,-2.00356 5.26187,-3.872202 8.48647,-5.228146 0.4992,-0.209127 0.96466,-0.40476 1.03888,-0.43849 0.28333,-0.13492 1.38967,-0.532933 2.39483,-0.863487 3.76426,-1.241264 7.56901,-2.010307 11.6031,-2.34086 0.68135,-0.05397 1.49088,-0.101185 1.79445,-0.101185 0.29682,0 0.87697,-0.02024 1.28173,-0.04722 0.86349,-0.06071 0.85674,-0.06071 -1.32221,-0.290078 -1.13332,-0.121428 -1.87539,-0.148412 -4.11506,-0.168649 -1.50436,-0.0067 -2.91427,-0.0067 -3.13689,0.0067 z"
       id="path1018"
       style="fill:#9c2727;fill-opacity:1;stroke:none;stroke-width:0.006746" />
    <path
       style="fill:#ffaa56;fill-opacity:1;stroke:none;stroke-width:0.006746"
       id="path1020"
       d="m -289.84936,9.8610973 c -9.34321,0.5801547 -17.47888,3.4404577 -21.64791,7.6162297 -2.53649,2.543238 -3.37975,5.437272 -2.41506,8.290827 0.0944,0.276587 0.11467,0.451981 0.0741,0.553172 -0.10795,0.296824 -0.2631,1.349198 -0.2631,1.814673 0,1.28174 0.50595,3.008714 1.22102,4.148788 l 0.14841,0.236109 0.12143,-0.620632 c 0.26984,-1.301977 1.00516,-3.022206 1.84841,-4.297199 3.89244,-5.895999 12.83762,-10.496769 23.4086,-12.048348 1.90911,-0.276585 3.08966,-0.377776 5.97021,-0.512696 l 1.04563,-0.05397 -0.94444,-0.114682 c -5.30236,-0.674599 -11.96065,-0.290077 -17.1011,0.991661 -3.93292,0.97817 -7.64997,2.469035 -9.86939,3.953154 -0.20913,0.141666 -0.38452,0.242856 -0.38452,0.229365 0,-0.02024 0.34404,-0.344047 0.76229,-0.715077 2.21943,-2.00356 5.26187,-3.872202 8.48647,-5.228146 0.4992,-0.209127 0.96466,-0.40476 1.03888,-0.43849 0.28333,-0.13492 1.38967,-0.532933 2.39483,-0.863487 3.76426,-1.241264 7.56901,-2.010307 11.6031,-2.34086 0.68135,-0.05397 1.49088,-0.101185 1.79445,-0.101185 0.29682,0 0.87697,-0.02024 1.28173,-0.04722 0.86349,-0.06071 0.85674,-0.06071 -1.32221,-0.290078 -1.13332,-0.1214277 -1.87539,-0.1484117 -4.11506,-0.1686487 -1.50436,-0.0067 -2.91427,-0.0067 -3.13689,0.0067 z"
       inkscape:connector-curvature="0" />
    <path
       inkscape:connector-curvature="0"
       id="path1040"
       d="m -291.70289,22.020816 -3.06002,3.567696 -3.05008,-3.553792 -1.25134,1.07416 3.21495,3.746061 -0.46956,0.54741 -0.79687,-0.941878 -2.17614,2.571792 -2.17652,2.57139 h 4.35266 2.75611 1.59656 1.12339 2.72035 l -1.36019,-1.633884 -1.36016,-1.633887 -0.37657,0.452469 -2.09032,-2.435533 3.15973,-3.683694 z m -3.49026,5.598432 2.10663,2.454998 -0.48147,0.5784 -1.37172,-1.620381 -0.72774,-0.860045 z"
       style="fill:#9c2727;fill-opacity:1;fill-rule:evenodd;stroke:#000000;stroke-width:0;stroke-linecap:butt;stroke-linejoin:miter;stroke-miterlimit:4;stroke-dasharray:none;stroke-opacity:1" />
    <path
       style="fill:#ffaa56;fill-opacity:1;fill-rule:evenodd;stroke:#000000;stroke-width:0;stroke-linecap:butt;stroke-linejoin:miter;stroke-miterlimit:4;stroke-dasharray:none;stroke-opacity:1"
       d="m -292.09839,21.805088 -3.06002,3.567696 -3.05008,-3.553792 -1.25134,1.07416 3.21495,3.746061 -0.46956,0.54741 -0.79687,-0.941878 -2.17614,2.571792 -2.17652,2.57139 h 4.35266 2.75611 1.59656 1.12339 2.72035 l -1.36019,-1.633884 -1.36016,-1.633887 -0.37657,0.452469 -2.09032,-2.435533 3.15973,-3.683694 z m -3.49026,5.598432 2.10663,2.454998 -0.48147,0.5784 -1.37172,-1.620381 -0.72774,-0.860045 z"
       id="path1022"
       inkscape:connector-curvature="0" />
    <path
       sodipodi:nodetypes="cccssccscccccssssccsccsccssssccsccsssss"
       inkscape:connector-curvature="0"
       id="path1038"
       d="m -285.49483,16.861941 c -0.27112,0.03535 -0.51913,0.05263 -0.81641,0.0957 -10.28323,1.509344 -19.01285,5.906623 -23.06445,11.572266 v 0.298828 c 0,0.527 0.66037,0.951172 1.48437,0.951172 h 1.93555 c 0.23512,0.819942 0.5648,1.609755 0.98242,2.353516 l -1.375,1.375 c -0.582,0.582 -0.74895,1.349656 -0.37695,1.722656 l 2.89843,2.896484 c 0.373,0.372 1.14066,0.205047 1.72266,-0.376953 l 1.36914,-1.367187 c 0.74624,0.413309 1.53802,0.738411 2.35938,0.96875 v 1.941406 c 0,0.824 0.42417,1.486328 0.95117,1.486328 h 4.09765 c 0.527,0 0.95118,-0.662328 0.95118,-1.486328 v -1.933594 c 0.81935,-0.235879 1.60851,-0.566222 2.35156,-0.984375 l 1.375,1.375 c 0.582,0.582 1.35161,0.748953 1.72461,0.376953 l 2.89648,-2.896484 c 0.372,-0.373 0.20505,-1.140656 -0.37695,-1.722656 l -1.36914,-1.369141 c 0.41331,-0.746235 0.73841,-1.538014 0.96875,-2.359375 h 1.94336 c 0.824,0 1.48633,-0.424172 1.48633,-0.951172 v -4.097656 c 0,-0.527 -0.66233,-0.951172 -1.48633,-0.951172 h -1.9336 c -0.23588,-0.819355 -0.56622,-1.608507 -0.98437,-2.351562 l 1.375,-1.375 c 0.582,-0.582001 0.74895,-1.35161 0.37695,-1.72461 z m -9.6012,3.256952 c 4.25447,0 7.70339,3.448926 7.70339,7.70339 0,4.254464 -3.44892,7.70339 -7.70339,7.70339 -4.25447,0 -7.70339,-3.448926 -7.70339,-7.70339 0,-4.254464 3.44892,-7.70339 7.70339,-7.70339 z"
       style="fill:#9c2727;fill-opacity:1" />
    <path
       style="fill:#ffaa56"
       d="m -285.96224,16.46644 c -0.27112,0.03535 -0.51913,0.05263 -0.81641,0.0957 -10.28323,1.509344 -19.01285,5.906623 -23.06445,11.572266 v 0.298828 c 0,0.527 0.66037,0.951172 1.48437,0.951172 h 1.93555 c 0.23512,0.819942 0.5648,1.609755 0.98242,2.353516 l -1.375,1.375 c -0.582,0.582 -0.74895,1.349656 -0.37695,1.722656 l 2.89843,2.896484 c 0.373,0.372 1.14066,0.205047 1.72266,-0.376953 l 1.36914,-1.367187 c 0.74624,0.413309 1.53802,0.738411 2.35938,0.96875 v 1.941406 c 0,0.824 0.42417,1.486328 0.95117,1.486328 h 4.09765 c 0.527,0 0.95118,-0.662328 0.95118,-1.486328 v -1.933594 c 0.81935,-0.235879 1.60851,-0.566222 2.35156,-0.984375 l 1.375,1.375 c 0.582,0.582 1.35161,0.748953 1.72461,0.376953 l 2.89648,-2.896484 c 0.372,-0.373 0.20505,-1.140656 -0.37695,-1.722656 l -1.36914,-1.369141 c 0.41331,-0.746235 0.73841,-1.538014 0.96875,-2.359375 h 1.94336 c 0.824,0 1.48633,-0.424172 1.48633,-0.951172 v -4.097656 c 0,-0.527 -0.66233,-0.951172 -1.48633,-0.951172 h -1.9336 c -0.23588,-0.819355 -0.56622,-1.608507 -0.98437,-2.351562 l 1.375,-1.375 c 0.582,-0.582001 0.74895,-1.35161 0.37695,-1.72461 z m -9.6012,3.256952 c 4.25447,0 7.70339,3.448926 7.70339,7.70339 0,4.254464 -3.44892,7.70339 -7.70339,7.70339 -4.25447,0 -7.70339,-3.448926 -7.70339,-7.70339 0,-4.254464 3.44892,-7.70339 7.70339,-7.70339 z"
       id="path1026"
       inkscape:connector-curvature="0"
       sodipodi:nodetypes="cccssccscccccssssccsccsccssssccsccsssss" />
  </g>
</svg>
